<svg xmlns="http://www.w3.org/2000/svg" version="1.1" viewBox="-5.0 -10.0 110.0 135.0">
 <path d="m39.422 87.5c-0.29688 0-0.60156-0.11328-0.82812-0.34375l-7.9141-7.9141c-0.21875-0.21875-0.34375-0.51563-0.34375-0.82813s0.12109-0.60937 0.34375-0.82812c1.0391-1.0391 1.6094-2.4219 1.6094-3.8984s-0.57031-2.8555-1.6094-3.8984c-2.1484-2.1484-5.6445-2.1484-7.7891 0-0.21875 0.21875-0.51562 0.34375-0.82812 0.34375s-0.60938-0.12109-0.82812-0.34375l-7.9141-7.9141c-0.46094-0.46094-0.46094-1.2031 0-1.6562l46.441-46.441c0.46094-0.46094 1.2031-0.46094 1.6562 0l7.9141 7.9141c0.46094 0.46094 0.46094 1.2031 0 1.6562-2.1484 2.1484-2.1484 5.6445 0 7.7891 1.0391 1.0391 2.4219 1.6094 3.8984 1.6094 1.4766 0 2.8555-0.57031 3.8984-1.6094 0.46094-0.46094 1.2031-0.46094 1.6562 0l7.9023 7.9258c0.21875 0.21875 0.34375 0.51562 0.34375 0.82812s-0.12109 0.60938-0.34375 0.82812l-46.438 46.438c-0.23047 0.23047-0.52734 0.34375-0.82812 0.34375zm-6.3203-9.1484 6.3242 6.3203 44.781-44.781-6.3242-6.3203c-1.3438 0.99609-2.9609 1.5312-4.6641 1.5312-2.1016 0-4.0664-0.81641-5.5508-2.3008-2.7773-2.7773-3.0391-7.1445-0.76562-10.215l-6.3242-6.3242-44.781 44.781 6.3203 6.3242c3.0703-2.2695 7.4375-2.0117 10.215 0.76562 1.4844 1.4844 2.3008 3.457 2.3008 5.5508 0 1.707-0.53516 3.3242-1.5312 4.668z"/>
 <path d="m14.141 62.219c-0.25391 0-0.51172-0.082031-0.72656-0.25391-0.50781-0.40625-0.58984-1.1406-0.1875-1.6445l37.699-47.375c0.19531-0.24219 0.47266-0.39844 0.78516-0.43359 0.30859-0.035157 0.62109 0.054687 0.86328 0.25l5.3906 4.2891c0.50781 0.40625 0.58984 1.1406 0.1875 1.6445-0.40625 0.50781-1.1406 0.58984-1.6445 0.1875l-4.4727-3.5586-36.969 46.461c-0.24219 0.28125-0.58203 0.43359-0.92578 0.43359z"/>
 <path d="m39.082 65.227c-0.29688 0-0.60156-0.11328-0.82812-0.34375l-2.6719-2.6719c-0.46094-0.46094-0.46094-1.2031 0-1.6562 0.45703-0.45313 1.2031-0.46094 1.6562 0l2.6719 2.6719c0.46094 0.46094 0.46094 1.2031 0 1.6562-0.22656 0.23047-0.52734 0.34375-0.82812 0.34375z"/>
 <path d="m44.734 70.879c-0.29688 0-0.60156-0.11328-0.82812-0.34375l-2.6719-2.6719c-0.46094-0.46094-0.46094-1.2031 0-1.6562 0.46094-0.46094 1.2031-0.46094 1.6562 0l2.6719 2.6719c0.46094 0.46094 0.46094 1.2031 0 1.6562-0.22656 0.23047-0.52734 0.34375-0.82812 0.34375z"/>
 <path d="m50.391 76.531c-0.29688 0-0.60156-0.11328-0.82812-0.34375l-2.6719-2.6719c-0.46094-0.46094-0.46094-1.2031 0-1.6562 0.45703-0.45312 1.2031-0.46094 1.6562 0l2.6719 2.6719c0.46094 0.46094 0.46094 1.2031 0 1.6562-0.22656 0.22656-0.53125 0.34375-0.82812 0.34375z"/>
 <path d="m27.777 53.922c-0.29688 0-0.60156-0.11328-0.82812-0.34375l-2.6719-2.6719c-0.46094-0.46094-0.46094-1.2031 0-1.6562 0.45703-0.45312 1.2031-0.46094 1.6562 0l2.6719 2.6719c0.46094 0.46094 0.46094 1.2031 0 1.6562-0.22656 0.22656-0.52734 0.34375-0.82812 0.34375z"/>
 <path d="m33.434 59.574c-0.29688 0-0.60156-0.11328-0.82812-0.34375l-2.6719-2.6719c-0.46094-0.46094-0.46094-1.2031 0-1.6562 0.45703-0.45312 1.2031-0.46094 1.6562 0l2.6719 2.6719c0.46094 0.46094 0.46094 1.2031 0 1.6562-0.23438 0.22656-0.53125 0.34375-0.82812 0.34375z"/>
 <path d="m32.5 51.973c-0.29688 0-0.60156-0.11328-0.82812-0.34375-0.46094-0.46094-0.46094-1.2031 0-1.6562l18.23-18.23c0.46094-0.46094 1.2031-0.46094 1.6562 0 0.46094 0.46094 0.46094 1.2031 0 1.6562l-18.227 18.227c-0.23047 0.23438-0.52734 0.34766-0.83203 0.34766z"/>
 <path d="m36.656 56.125c-0.29688 0-0.60156-0.11328-0.82812-0.34375-0.46094-0.46094-0.46094-1.2031 0-1.6562l11.309-11.309c0.46094-0.46094 1.2031-0.46094 1.6562 0 0.46094 0.46094 0.46094 1.2031 0 1.6562l-11.309 11.309c-0.22656 0.23047-0.53125 0.34375-0.82812 0.34375z"/>
 <path d="m49.668 69.137c-0.3125 0-0.60938-0.12109-0.82812-0.34375l-3.8633-3.8633c-0.46094-0.46094-0.46094-1.2031 0-1.6562l24.281-24.281c0.46094-0.46094 1.2031-0.46094 1.6562 0l3.8633 3.8633c0.21875 0.21875 0.34375 0.51562 0.34375 0.82812s-0.12109 0.60938-0.34375 0.82812l-24.281 24.281c-0.21875 0.22266-0.51562 0.34375-0.82812 0.34375zm-2.2031-5.0312 2.2031 2.2031 22.625-22.625-2.2031-2.2031z"/>
 <path d="m41.168 60.641c-0.29688 0-0.60156-0.11328-0.82812-0.34375-0.46094-0.46094-0.46094-1.2031 0-1.6562l2.6641-2.6641c0.46094-0.46094 1.2031-0.46094 1.6562 0 0.45312 0.46094 0.46094 1.2031 0 1.6562l-2.6641 2.6641c-0.23047 0.22656-0.52734 0.34375-0.82812 0.34375z"/>
 <path d="m46.621 55.188c-0.29688 0-0.60156-0.11328-0.82812-0.34375-0.46094-0.46094-0.46094-1.2031 0-1.6562l2.6641-2.6641c0.46094-0.46094 1.2031-0.46094 1.6562 0 0.46094 0.46094 0.46094 1.2031 0 1.6562l-2.6641 2.6641c-0.22656 0.22656-0.52734 0.34375-0.82812 0.34375z"/>
 <path d="m52.074 49.73c-0.29688 0-0.60156-0.11328-0.82812-0.34375-0.46094-0.46094-0.46094-1.2031 0-1.6562l2.6641-2.6641c0.46094-0.46094 1.2031-0.46094 1.6562 0 0.46094 0.46094 0.46094 1.2031 0 1.6562l-2.6641 2.6641c-0.22656 0.22656-0.52344 0.34375-0.82812 0.34375z"/>
 <path d="m57.531 44.277c-0.29688 0-0.60156-0.11328-0.82812-0.34375-0.46094-0.46094-0.46094-1.2031 0-1.6562l2.6641-2.6641c0.46094-0.46094 1.2031-0.46094 1.6562 0 0.46094 0.46094 0.46094 1.2031 0 1.6562l-2.6641 2.6641c-0.23047 0.22656-0.52734 0.34375-0.82812 0.34375z"/>
 <path d="m62.984 38.824c-0.29688 0-0.60156-0.11328-0.82812-0.34375-0.46094-0.46094-0.46094-1.2031 0-1.6562l2.6641-2.6641c0.46094-0.46094 1.2031-0.46094 1.6562 0 0.46094 0.46094 0.46094 1.2031 0 1.6562l-2.6641 2.6641c-0.22656 0.22656-0.52734 0.34375-0.82812 0.34375z"/>
<text x="0.0" y="117.5" font-size="5.0" font-weight="bold" font-family="Arbeit Regular, Helvetica, Arial-Unicode, Arial, Sans-serif" fill="#000000">Created by Iconbunny</text><text x="0.0" y="122.5" font-size="5.0" font-weight="bold" font-family="Arbeit Regular, Helvetica, Arial-Unicode, Arial, Sans-serif" fill="#000000">from Noun Project</text></svg>