<svg xmlns:dc="http://purl.org/dc/elements/1.1/" xmlns:cc="http://creativecommons.org/ns#" xmlns:rdf="http://www.w3.org/1999/02/22-rdf-syntax-ns#" xmlns:svg="http://www.w3.org/2000/svg" xmlns="http://www.w3.org/2000/svg" xmlns:sodipodi="http://sodipodi.sourceforge.net/DTD/sodipodi-0.dtd" xmlns:inkscape="http://www.inkscape.org/namespaces/inkscape" version="1.1" x="0px" y="0px" viewBox="0 0 100 125"><g transform="translate(0,-952.36218)"><path d="m 1.9167001,1015.0902 2.1214001,2.1213 7.7780998,7.7782 2.1214,2.1213 2.1213,-2.1213 c 3.1492,-3.1493 8.1645,-3.1492 11.3137,0 3.1494,3.1493 3.1493,8.1644 0,11.3137 l -2.1213,2.1213 2.1213,2.1213 7.7782,7.7782 2.1213,2.1213 2.1213,-2.1213 56.5685,-56.56863 2.1214,-2.12132 -2.1214,-2.12133 -7.7781,-7.77817 -2.1214,-2.12132 -2.1213,2.12132 c -3.1493,3.14931 -8.1643,3.14938 -11.3137,0 -3.1492,-3.14919 -3.1492,-8.16447 0,-11.31371 l 2.1213,-2.12132 -2.1213,-2.12132 -7.7782,-7.77817 -2.1213,-2.12132 -2.1213,2.12132 -56.5684998,56.56857 -2.1214001,2.1214 z m 8.4852999,0 34.6483,-34.64834 3.5355,3.53553 4.2426,-4.24265 -3.5355,-3.53553 13.435,-13.43503 3.7786,3.7786 c -3.45,5.41088 -2.8347,12.72164 1.8783,17.43461 4.713,4.71306 12.0016,5.30619 17.4125,1.85616 l 3.8007,3.8007 -13.435,13.43495 -3.5356,-3.53546 -4.2426,4.24266 3.5355,3.5356 -34.6482,34.6482 -3.8007,-3.8007 c 3.45,-5.4108 2.8569,-12.6994 -1.8562,-17.4125 -4.7129,-4.7129 -12.0237,-5.3282 -17.4346,-1.8782 l -3.7786,-3.7786 z m 24.7488,-17.67779 3.9332,9.23669 -6.8059,7.6898 10.0984,-1.0828 5.0382,8.662 2.3201,-9.9215 9.9216,-2.3202 -8.662,-5.0383 1.0827,-10.09831 -7.6898,6.80591 -9.2365,-3.93329 z m 16.2634,-10.60659 5.6569,5.65685 4.2426,-4.24265 -5.6568,-5.65685 -4.2427,4.24265 z m 8.4853,8.48528 5.6569,5.6568 4.2426,-4.2426 -5.6569,-5.65685 -4.2426,4.24265 z" style="text-indent:0;text-transform:none;direction:ltr;block-progression:tb;baseline-shift:baseline;color:#000000;enable-background:accumulate;" fill="#000000" fill-opacity="1" stroke="none" marker="none" visibility="visible" display="inline" overflow="visible"/></g><text x="0" y="115" fill="#000000" font-size="5px" font-weight="bold" font-family="'Helvetica Neue', Helvetica, Arial-Unicode, Arial, Sans-serif">Created by Three Six Five</text><text x="0" y="120" fill="#000000" font-size="5px" font-weight="bold" font-family="'Helvetica Neue', Helvetica, Arial-Unicode, Arial, Sans-serif">from the Noun Project</text></svg>