<svg xmlns:dc="http://purl.org/dc/elements/1.1/" xmlns:cc="http://creativecommons.org/ns#" xmlns:rdf="http://www.w3.org/1999/02/22-rdf-syntax-ns#" xmlns:svg="http://www.w3.org/2000/svg" xmlns="http://www.w3.org/2000/svg" xmlns:sodipodi="http://sodipodi.sourceforge.net/DTD/sodipodi-0.dtd" xmlns:inkscape="http://www.inkscape.org/namespaces/inkscape" version="1.1" x="0px" y="0px" viewBox="0 0 100 125"><g transform="translate(0,-952.36218)"><path d="m 7.5736,1016.5043 7.0711,7.0711 c 3.9052,-3.9052 10.237,-3.9051 14.1421,0 3.9053,3.9053 3.9052,10.2369 0,14.1421 l 7.0711,7.0711 39.598,-39.598 -28.2842,-28.28425 -39.598,39.59795 z M 50,974.07793 l 28.2843,28.28427 14.1421,-14.14214 -7.071,-7.07107 c -3.9053,3.90521 -10.2369,3.90528 -14.1422,0 -3.9051,-3.90513 -3.9052,-10.23692 0,-14.14213 L 64.1421,959.93579 50,974.07793 z m -14.8492,23.33452 9.2366,3.93325 7.6897,-6.80587 -1.0827,10.09837 8.662,5.0382 -9.9216,2.3201 -2.3201,9.9216 -5.0382,-8.662 -10.0984,1.0827 6.806,-7.6898 -3.9333,-9.23655 z" style="color:#000000;enable-background:accumulate;" fill="#000000" stroke="none" marker="none" visibility="visible" display="inline" overflow="visible"/></g><text x="0" y="115" fill="#000000" font-size="5px" font-weight="bold" font-family="'Helvetica Neue', Helvetica, Arial-Unicode, Arial, Sans-serif">Created by Three Six Five</text><text x="0" y="120" fill="#000000" font-size="5px" font-weight="bold" font-family="'Helvetica Neue', Helvetica, Arial-Unicode, Arial, Sans-serif">from the Noun Project</text></svg>